<svg width="234" height="65" viewBox="0 0 234 65" fill="none" xmlns="http://www.w3.org/2000/svg">
<path d="M57.4078 46.3242C57.165 46.8092 56.9223 47.2943 56.6796 47.6581C56.4368 48.1432 56.0727 48.6283 55.83 48.9921C54.9804 50.2048 54.1308 51.4174 53.1599 52.5089C52.7958 52.8727 52.4316 53.2365 52.1889 53.6003C52.1889 53.6003 52.1889 53.7215 51.9462 53.8428C51.5821 54.2066 51.0966 54.6917 50.7325 55.0555C50.247 55.4193 49.7615 55.7831 49.276 56.2682C48.7906 56.632 48.3051 56.9958 47.6982 57.3596C45.9991 58.451 44.2999 59.4212 42.4794 60.1488C38.8383 61.604 34.9545 62.3316 31.0706 62.4529C27.1868 62.4529 23.303 61.7253 19.6619 60.1488C16.0209 58.5723 12.7439 56.5107 9.95239 53.7215C7.1609 50.9324 4.97625 47.7794 3.51982 44.1413C3.27708 43.6563 3.15571 43.1712 3.03434 42.6861C2.79161 42.201 2.67024 41.716 2.54887 41.1096C2.4275 40.6245 2.30613 40.1395 2.18476 39.6544C2.18476 39.048 1.94202 38.563 1.82065 37.9566C1.82065 37.9566 1.82065 37.8354 1.82065 37.7141C1.82065 37.229 1.69928 36.8652 1.57791 36.3801C1.57791 36.3801 1.57791 36.1376 1.57791 36.0163C1.57791 35.41 1.57791 34.8036 1.45654 34.3186C1.45654 33.7122 1.45654 33.2271 1.45654 32.6208V30.1954C1.45654 29.5891 1.69928 28.9827 1.69928 28.4977C1.69928 28.4977 1.69928 28.2551 1.69928 28.1339C1.69928 27.6488 1.82065 27.1637 1.94202 26.6786C1.94202 26.1936 2.18476 25.5872 2.30613 25.1021V24.8596C2.54887 24.3745 2.67024 24.0107 2.79161 23.5257L3.27708 22.0704C3.27708 21.8279 3.51982 21.5854 3.51982 21.3428C5.09762 17.7048 7.1609 14.4305 9.95239 11.6413C12.7439 8.85215 16.0209 6.66931 19.6619 5.21409C23.303 3.75886 27.0655 3.03125 31.0706 3.03125C35.0758 3.03125 38.8383 3.75886 42.4794 5.21409C44.0572 5.9417 45.5136 6.66931 46.97 7.63946C47.5769 8.00327 48.0623 8.36707 48.5478 8.73088C49.0333 9.09468 49.5188 9.45849 50.0043 9.94356C50.4897 10.3074 50.9752 10.6712 51.3393 11.1562C51.5821 11.3988 51.8248 11.6413 52.0675 11.8839L52.553 12.3689C53.524 13.4604 54.4949 14.5518 55.3445 15.7645C55.7086 16.2495 55.9514 16.6133 56.1941 17.0984C56.4368 17.5835 56.8009 17.9473 57.0437 18.4324C57.2864 18.9174 57.5292 19.4025 57.7719 19.8876L56.3155 20.4939L54.859 21.1003L53.4026 21.7066L49.3974 23.2831L47.941 23.8895L46.4845 24.4958L45.0281 25.1021C44.7854 24.6171 44.4213 24.132 44.1785 23.7682C43.8144 23.2831 43.4503 22.9193 43.0862 22.4342C42.8435 22.1917 42.7221 21.9492 42.358 21.7066L41.8725 21.2215C40.5375 20.0089 39.2024 19.0387 37.5032 18.4324H37.1391C36.5323 18.0686 35.9254 17.826 35.1972 17.7048C34.2263 17.4622 33.1339 17.2197 32.163 17.2197C31.7989 17.2197 31.3134 17.2197 30.9493 17.2197C29.0074 17.2197 27.0655 17.5835 25.1236 18.3111C25.1236 18.3111 24.8808 18.3111 24.7594 18.4324C22.8175 19.2812 21.1184 20.3727 19.5406 21.9492C19.5406 21.9492 19.2978 22.1917 19.1765 22.313C18.4482 23.0406 17.8414 23.8895 17.3559 24.7383C16.8704 25.466 16.5063 26.1936 16.1422 26.9212C16.1422 26.9212 16.1422 27.1637 16.0209 27.285C16.0209 27.5275 16.0209 27.6488 15.7781 27.7701C15.5354 28.2551 15.414 28.7402 15.2926 29.2253C15.2926 29.7104 15.0499 30.1954 14.9285 30.8018C14.9285 31.1656 14.9285 31.5294 14.9285 31.8932C14.9285 32.0145 14.9285 32.1357 14.9285 32.3783C14.9285 32.7421 14.9285 32.9846 14.9285 33.3484V34.076C14.9285 34.4398 14.9285 34.8036 14.9285 35.2887C14.9285 35.7738 15.0499 36.3801 15.1713 36.8652C15.1713 37.3503 15.414 37.9566 15.5354 38.4417L15.7781 39.048C15.7781 39.2906 15.7781 39.4118 16.0209 39.6544C16.2636 40.1395 16.5063 40.6245 16.7491 41.1096C17.2346 41.8372 17.72 42.6861 18.2055 43.4137C18.5696 43.8988 19.0551 44.3839 19.5406 44.8689C20.026 45.354 20.5115 45.7178 20.997 46.2029C22.2107 47.0518 23.4244 47.9007 24.7594 48.3857C26.3372 48.9921 28.0364 49.4771 29.7356 49.5984C30.0997 49.5984 30.4638 49.5984 30.9493 49.5984C31.9202 49.5984 32.7698 49.5984 33.6194 49.3559C34.469 49.2346 35.4399 48.9921 36.2895 48.6283C36.5323 48.6283 36.8964 48.3857 37.1391 48.2645L38.3528 47.6581C39.8092 46.9305 41.1443 45.9604 42.358 44.7477C42.7221 44.3839 43.0862 43.8988 43.4503 43.535C43.8144 43.1712 44.1785 42.6861 44.4213 42.201C44.664 41.7159 44.9067 41.3521 45.1495 40.8671L46.6059 41.4734L48.0623 42.0798L49.5188 42.6861L53.4026 44.2626L54.859 44.8689L56.3155 45.4753L57.7719 46.0816C57.5292 46.5667 57.2864 47.0518 57.0437 47.5368L57.4078 46.3242Z" fill="#AAAAAA"/>
<path d="M171.252 46.2038C170.888 48.2654 170.16 50.2057 169.189 52.0247C168.096 53.8437 166.883 55.4202 165.184 56.7542C163.606 58.0881 161.785 59.0583 159.843 59.9072C157.901 60.6348 155.838 60.9986 153.775 60.9986H120.277V3.75977H152.804C153.047 3.75977 153.289 3.75977 153.532 3.75977C155.595 3.75977 157.537 4.36611 159.358 5.21499C163.12 6.91275 166.033 9.58066 167.975 13.34C168.46 14.1889 168.825 15.159 169.189 16.1292C169.553 17.0993 169.796 18.0695 169.917 19.0396C170.038 20.0098 170.16 21.1012 170.038 22.0713C170.038 23.0415 169.917 24.0116 169.674 25.103C169.31 26.8008 168.703 28.4986 167.854 30.0751L167.49 30.8027C167.368 31.0452 167.247 31.2877 167.004 31.5303C167.368 31.8941 167.732 32.3792 168.096 32.743C168.46 33.228 168.825 33.8344 169.189 34.4407C169.674 35.2896 170.16 36.2598 170.524 37.2299C170.888 38.2001 171.131 39.1702 171.252 40.2616C171.373 41.353 171.495 42.3232 171.495 43.2933C171.495 44.2635 171.495 45.3549 171.252 46.4463V46.2038ZM153.653 25.3456C154.139 25.103 154.503 24.9818 154.867 24.618C155.11 24.3754 155.231 24.2542 155.474 24.0116C155.474 23.8904 155.717 23.7691 155.838 23.5266C156.081 23.1627 156.202 22.6777 156.324 22.3139C156.324 22.0713 156.324 21.8288 156.324 21.5863C156.324 21.3437 156.324 21.1012 156.324 20.8586C156.324 20.3736 156.081 20.0098 155.959 19.5247C155.474 18.6758 154.867 18.0695 154.018 17.7057C153.653 17.4631 153.168 17.4631 152.682 17.4631C152.682 17.4631 152.561 17.4631 152.44 17.4631H133.87V25.5881H152.318C152.804 25.5881 153.289 25.5881 153.653 25.3456ZM157.294 41.2318C157.052 40.868 156.809 40.5042 156.566 40.2616C156.566 40.2616 156.445 40.2616 156.324 40.1404C155.959 39.8978 155.595 39.6553 155.11 39.4127C154.867 39.4127 154.624 39.2915 154.382 39.1702H154.139H133.749V47.2952H153.653C154.139 47.2952 154.624 47.2952 154.988 47.0527C155.474 46.8101 155.838 46.6889 156.202 46.3251C156.566 45.9613 156.93 45.5975 157.052 45.2336C157.294 44.8698 157.416 44.3848 157.537 43.8997C157.537 43.6572 157.537 43.4146 157.537 43.1721C157.537 42.9295 157.537 42.687 157.537 42.4445C157.537 41.9594 157.294 41.5956 157.052 41.1105L157.294 41.2318Z" fill="#009FDC"/>
<path d="M231.937 46.3242C231.694 46.8092 231.451 47.2943 231.208 47.6581C230.966 48.1432 230.602 48.6283 230.359 48.9921C229.509 50.2048 228.66 51.4174 227.689 52.5089C227.325 52.8727 226.96 53.2365 226.718 53.6003C226.718 53.6003 226.718 53.7215 226.475 53.8428C226.111 54.2066 225.625 54.6917 225.261 55.0555C224.776 55.4193 224.29 55.7831 223.805 56.2682C223.319 56.632 222.834 56.9958 222.227 57.3596C220.528 58.451 218.829 59.4212 217.008 60.1488C213.367 61.604 209.483 62.3316 205.599 62.4529C201.716 62.4529 197.832 61.7253 194.191 60.1488C190.55 58.5723 187.273 56.5107 184.481 53.7215C181.69 50.9324 179.505 47.7794 178.049 44.1413C177.806 43.6563 177.685 43.1712 177.563 42.6861C177.32 42.201 177.199 41.716 177.078 41.1096C176.956 40.6245 176.835 40.1395 176.714 39.6544C176.714 39.048 176.471 38.563 176.349 37.9566C176.349 37.9566 176.349 37.8354 176.349 37.7141C176.349 37.229 176.228 36.8652 176.107 36.3801C176.107 36.3801 176.107 36.1376 176.107 36.0163C176.107 35.41 176.107 34.8036 175.985 34.3186C175.985 33.7122 175.985 33.2271 175.985 32.6208V30.1954C175.985 29.5891 176.228 28.9827 176.228 28.4977C176.228 28.4977 176.228 28.2551 176.228 28.1339C176.228 27.6488 176.349 27.1637 176.471 26.6786C176.471 26.1936 176.714 25.5872 176.835 25.1021V24.8596C177.078 24.3745 177.199 24.0107 177.32 23.5257L177.806 22.0704C177.806 21.8279 178.049 21.5854 178.049 21.3428C179.626 17.7048 181.69 14.4305 184.481 11.6413C187.273 8.85215 190.55 6.66931 194.191 5.21409C197.832 3.75886 201.594 3.03125 205.599 3.03125C209.605 3.03125 213.367 3.75886 217.008 5.21409C218.586 5.9417 220.042 6.66931 221.499 7.63946C222.106 8.00327 222.591 8.36707 223.077 8.73088C223.562 9.09468 224.048 9.45849 224.533 9.94356C225.019 10.3074 225.504 10.6712 225.868 11.1562C226.111 11.3988 226.354 11.6413 226.596 11.8839L227.082 12.3689C228.053 13.4604 229.024 14.5518 229.873 15.7645C230.237 16.2495 230.48 16.6133 230.723 17.0984C230.966 17.5835 231.33 17.9473 231.572 18.4324C231.815 18.9174 232.058 19.4025 232.301 19.8876L230.844 20.4939L229.388 21.1003L227.931 21.7066L223.926 23.2831L222.47 23.8895L221.013 24.4958L219.557 25.1021C219.314 24.6171 218.95 24.132 218.707 23.7682C218.343 23.2831 217.979 22.9193 217.615 22.4342C217.372 22.1917 217.251 21.9492 216.887 21.7066L216.401 21.2215C215.066 20.0089 213.731 19.0387 212.032 18.4324H211.668C211.061 18.0686 210.454 17.826 209.726 17.7048C208.755 17.4622 207.663 17.2197 206.692 17.2197C206.328 17.2197 205.842 17.2197 205.478 17.2197C203.536 17.2197 201.594 17.5835 199.652 18.3111C199.652 18.3111 199.41 18.3111 199.288 18.4324C197.346 19.2812 195.647 20.3727 194.069 21.9492C194.069 21.9492 193.827 22.1917 193.705 22.313C192.977 23.0406 192.37 23.8895 191.885 24.7383C191.399 25.466 191.035 26.1936 190.671 26.9212C190.671 26.9212 190.671 27.1637 190.55 27.285C190.55 27.5275 190.55 27.6488 190.307 27.7701C190.064 28.2551 189.943 28.7402 189.821 29.2253C189.821 29.7104 189.579 30.1954 189.457 30.8018C189.457 31.1656 189.457 31.5294 189.457 31.8932C189.457 32.0145 189.457 32.1357 189.457 32.3783C189.457 32.7421 189.457 32.9846 189.457 33.3484V34.076C189.457 34.4398 189.457 34.8036 189.457 35.2887C189.457 35.7738 189.579 36.3801 189.7 36.8652C189.7 37.3503 189.943 37.9566 190.064 38.4417L190.307 39.048C190.307 39.2906 190.307 39.4118 190.55 39.6544C190.792 40.1395 191.035 40.6245 191.278 41.1096C191.763 41.8372 192.249 42.6861 192.734 43.4137C193.098 43.8988 193.584 44.3839 194.069 44.8689C194.555 45.354 195.04 45.7178 195.526 46.2029C196.74 47.0518 197.953 47.9007 199.288 48.3857C200.866 48.9921 202.565 49.4771 204.264 49.5984C204.629 49.5984 204.993 49.5984 205.478 49.5984C206.449 49.5984 207.299 49.5984 208.148 49.3559C208.998 49.2346 209.969 48.9921 210.818 48.6283C211.061 48.6283 211.425 48.3857 211.668 48.2645L212.882 47.6581C214.338 46.9305 215.673 45.9604 216.887 44.7477C217.251 44.3839 217.615 43.8988 217.979 43.535C218.343 43.1712 218.707 42.6861 218.95 42.201C219.193 41.7159 219.436 41.3521 219.678 40.8671L221.135 41.4734L222.591 42.0798L224.048 42.6861L227.931 44.2626L229.388 44.8689L230.844 45.4753L232.301 46.0816C232.058 46.5667 231.815 47.0518 231.572 47.5368L231.937 46.3242Z" fill="#009FDC"/>
<path d="M102.072 25.5879H83.3809V39.17H93.94L102.072 25.5879Z" fill="#AAAAAA"/>
<path d="M78.6474 17.4631H106.926L115.058 3.75977H64.9326V60.8773H78.6474V17.4631Z" fill="#AAAAAA"/>
</svg>
