<?xml version="1.0" encoding="utf-8"?>
<svg xmlns="http://www.w3.org/2000/svg" xmlns:xlink="http://www.w3.org/1999/xlink" version="1.1" id="Layer_1" x="0px" y="0px" viewBox="0 0 149.4 130.1" style="enable-background:new 0 0 149.4 130.1;">
<style type="text/css">
	.st0{fill:#FFFFFF;}
	.st1{clip-path:url(#SVGID_2_);}
	.st2{clip-path:url(#SVGID_4_);fill:#FFFFFF;}
	.st3{clip-path:url(#SVGID_6_);}
	.st4{clip-path:url(#SVGID_8_);enable-background:new    ;}
	.st5{clip-path:url(#SVGID_10_);}
	.st6{clip-path:url(#SVGID_12_);}
	.st7{clip-path:url(#SVGID_14_);fill:#518BC9;}
	.st8{clip-path:url(#SVGID_16_);fill:none;stroke:#518BC9;stroke-width:1.82;stroke-miterlimit:10;}
	.st9{clip-path:url(#SVGID_18_);}
	.st10{clip-path:url(#SVGID_20_);fill:#FFFFFF;}
	.st11{clip-path:url(#SVGID_22_);}
	.st12{clip-path:url(#SVGID_24_);fill:#FFFFFF;}
	.st13{clip-path:url(#SVGID_26_);fill:none;stroke:#518BC9;stroke-miterlimit:10;}
	.st14{clip-path:url(#SVGID_28_);}
	.st15{clip-path:url(#SVGID_30_);fill:#FFFFFF;}
	.st16{clip-path:url(#SVGID_32_);}
	.st17{clip-path:url(#SVGID_34_);enable-background:new    ;}
	.st18{clip-path:url(#SVGID_36_);}
	.st19{clip-path:url(#SVGID_38_);}
	.st20{clip-path:url(#SVGID_40_);fill:#FFFFFF;}
	.st21{clip-path:url(#SVGID_42_);}
	.st22{clip-path:url(#SVGID_44_);fill:#FFFFFF;}
	.st23{clip-path:url(#SVGID_46_);}
	.st24{clip-path:url(#SVGID_48_);fill:#FFFFFF;}
	.st25{clip-path:url(#SVGID_50_);}
	.st26{clip-path:url(#SVGID_52_);fill:#FFFFFF;}
	.st27{clip-path:url(#SVGID_54_);}
	.st28{clip-path:url(#SVGID_56_);fill:#FFFFFF;}
	.st29{clip-path:url(#SVGID_58_);}
	.st30{clip-path:url(#SVGID_60_);fill:#FFFFFF;}
	.st31{clip-path:url(#SVGID_62_);}
	.st32{clip-path:url(#SVGID_64_);fill:#FFFFFF;}
	.st33{clip-path:url(#SVGID_66_);}
	.st34{clip-path:url(#SVGID_68_);fill:#FFFFFF;}
	.st35{clip-path:url(#SVGID_70_);}
	.st36{clip-path:url(#SVGID_72_);fill:#FFFFFF;}
	.st37{clip-path:url(#SVGID_74_);}
	.st38{clip-path:url(#SVGID_76_);fill:#FFFFFF;}
	.st39{clip-path:url(#SVGID_78_);}
	.st40{clip-path:url(#SVGID_80_);fill:#FFFFFF;}
</style>
<title>logo-main</title>
<rect x="-2077.9" y="463.4" class="st0" width="1440" height="779"/>
<g>
	<g>
		<defs>
			<path id="SVGID_1_" d="M86.9,32c-7-4-23.3-3-22.6,8.2c0.3,5.2,4.6,9.6,8.1,12.9c3.8,3.6,8.2,6.9,10.6,11.6s0.2,10-3.8,13.1&#xA;				c-5,3.9-10.9,3.4-14.7-1.9c-1.9-2.7-2.3-6.3-1.1-9.4c0.6-1.6,1.6-2.9,2.9-4c0.6-0.5,1.2-0.9,1.9-1.2c0.4-0.2-1.1-0.3-0.5,0&#xA;				c1.9,0.8,5,7.2,2,8.3c-1.4,0.5-1.2,1.7,0,2.3c1.6,0.6,3.3,0.6,4.9,0c3.9-1.4,3.5-6,1.9-9.1c-2.4-4.6-8.3-5.5-12.7-3.9&#xA;				c-5.8,2.1-9.1,8.5-7.5,14.6c1.8,6.2,8.1,9.7,14.1,10.2c9.9,0.8,23.9-6.8,19.7-18.8c-1.8-5-6.6-8.7-10.3-12.1&#xA;				c-3.9-3.6-8.8-8.1-8.7-14c0.1-5.9,6.8-7,10.8-4.7C83.8,35.3,90.2,33.9,86.9,32L86.9,32z"/>
		</defs>
		<clipPath id="SVGID_2_">
			<use xlink:href="#SVGID_1_" style="overflow:visible;"/>
		</clipPath>
		<g class="st1">
			<defs>
				<rect id="SVGID_3_" x="-204.1" y="3.9" width="1440" height="779"/>
			</defs>
			<clipPath id="SVGID_4_">
				<use xlink:href="#SVGID_3_" style="overflow:visible;"/>
			</clipPath>
			<rect x="50.9" y="24.9" class="st2" width="45" height="64"/>
		</g>
	</g>
	<g>
		<defs>
			<rect id="SVGID_5_" x="3.9" y="17.9" width="142" height="95"/>
		</defs>
		<clipPath id="SVGID_6_">
			<use xlink:href="#SVGID_5_" style="overflow:visible;"/>
		</clipPath>
		<g class="st3">
			<defs>
				<rect id="SVGID_7_" x="-204.1" y="3.9" width="1440" height="779"/>
			</defs>
			<clipPath id="SVGID_8_">
				<use xlink:href="#SVGID_7_" style="overflow:visible;"/>
			</clipPath>
			<g class="st4">
				<g>
					<defs>
						<rect id="SVGID_9_" x="43.9" y="13.9" width="88" height="90"/>
					</defs>
					<clipPath id="SVGID_10_">
						<use xlink:href="#SVGID_9_" style="overflow:visible;"/>
					</clipPath>
					<g class="st5">
						<defs>
							<rect id="SVGID_11_" x="53.9" y="23.9" width="39" height="64"/>
						</defs>
						<clipPath id="SVGID_12_">
							<use xlink:href="#SVGID_11_" style="overflow:visible;"/>
						</clipPath>
						<g class="st6">
							<defs>
								<rect id="SVGID_13_" x="3.9" y="17.9" width="142" height="95"/>
							</defs>
							<clipPath id="SVGID_14_">
								<use xlink:href="#SVGID_13_" style="overflow:visible;"/>
							</clipPath>
							<rect x="48.9" y="18.9" class="st7" width="49" height="74"/>
						</g>
					</g>
					<g class="st5">
						<defs>
							<rect id="SVGID_15_" x="3.9" y="17.9" width="142" height="95"/>
						</defs>
						<clipPath id="SVGID_16_">
							<use xlink:href="#SVGID_15_" style="overflow:visible;"/>
						</clipPath>
						<rect x="53.9" y="23.9" class="st8" width="39" height="64"/>
					</g>
					<g class="st5">
						<defs>
							<path id="SVGID_17_" d="M86.9,32c-7-4-23.2-3-22.6,8.3c0.3,5.2,4.6,9.6,8.1,12.9c3.8,3.6,8.2,6.9,10.6,11.7&#xA;								c2.5,4.9,0.2,10-3.8,13.1c-5,4-10.9,3.4-14.7-1.9c-1.9-2.7-2.3-6.3-1.1-9.4c0.6-1.6,4.1-5.3,4.2-5.2c1.9,0.9,5,7.2,2,8.2&#xA;								c-1.3,0.5-1.2,1.7,0,2.3c1.6,0.6,3.3,0.6,4.9,0c3.9-1.4,3.5-6,1.9-9.1c-2.4-4.6-8.3-5.5-12.7-3.9c-5.9,2.1-9.1,8.5-7.4,14.7&#xA;								c1.8,6.2,8.1,9.7,14.1,10.2C80.3,84.6,94.4,77,90.2,65c-1.8-5-6.6-8.7-10.3-12.1c-3.9-3.6-8.8-8.1-8.7-14&#xA;								c0.1-5.9,6.8-7.1,10.8-4.7C83.8,35.2,90.2,33.9,86.9,32L86.9,32z"/>
						</defs>
						<clipPath id="SVGID_18_">
							<use xlink:href="#SVGID_17_" style="overflow:visible;"/>
						</clipPath>
						<g class="st9">
							<defs>
								<rect id="SVGID_19_" x="3.9" y="17.9" width="142" height="95"/>
							</defs>
							<clipPath id="SVGID_20_">
								<use xlink:href="#SVGID_19_" style="overflow:visible;"/>
							</clipPath>
							<rect x="50.9" y="24.9" class="st10" width="45" height="64"/>
						</g>
					</g>
					<g class="st5">
						<defs>
							<path id="SVGID_21_" d="M63.9,32.1c4,0,4-6.2,0-6.2S59.9,32.1,63.9,32.1"/>
						</defs>
						<clipPath id="SVGID_22_">
							<use xlink:href="#SVGID_21_" style="overflow:visible;"/>
						</clipPath>
						<g class="st11">
							<defs>
								<rect id="SVGID_23_" x="3.9" y="18.7" width="142" height="84.7"/>
							</defs>
							<clipPath id="SVGID_24_">
								<use xlink:href="#SVGID_23_" style="overflow:visible;"/>
							</clipPath>
							<rect x="55.9" y="21.4" class="st12" width="16" height="15.2"/>
						</g>
					</g>
					<g class="st5">
						<defs>
							<rect id="SVGID_25_" x="3.9" y="17.9" width="142" height="95"/>
						</defs>
						<clipPath id="SVGID_26_">
							<use xlink:href="#SVGID_25_" style="overflow:visible;"/>
						</clipPath>
						<rect x="48.9" y="18.9" class="st13" width="48" height="73"/>
					</g>
					<g class="st5">
						<defs>
							<path id="SVGID_27_" d="M129.9,103.9c-0.3,0-0.5,0-0.8-0.1c-0.2-0.1-0.5-0.2-0.6-0.4c-0.2-0.2-0.3-0.4-0.4-0.6&#xA;								c-0.1-0.3-0.2-0.5-0.2-0.8c0-0.3,0-0.6,0.2-0.8c0.1-0.2,0.2-0.4,0.4-0.6c0.2-0.2,0.4-0.3,0.6-0.4c0.3-0.1,0.5-0.1,0.8-0.1&#xA;								c0.3,0,0.5,0,0.8,0.1c0.2,0.1,0.4,0.2,0.6,0.4c0.2,0.2,0.3,0.4,0.4,0.6c0.1,0.3,0.2,0.5,0.2,0.8c0,0.3,0,0.6-0.2,0.8&#xA;								c-0.1,0.2-0.2,0.5-0.4,0.6c-0.2,0.2-0.4,0.3-0.6,0.4C130.5,103.8,130.2,103.9,129.9,103.9z M129.9,103.6c0.2,0,0.5,0,0.7-0.1&#xA;								c0.2-0.1,0.4-0.2,0.5-0.3c0.1-0.2,0.3-0.3,0.4-0.5c0.2-0.5,0.2-0.9,0-1.4c-0.1-0.2-0.2-0.4-0.4-0.5c-0.2-0.2-0.3-0.3-0.5-0.3&#xA;								c-0.2-0.1-0.4-0.1-0.7-0.1c-0.2,0-0.5,0-0.7,0.1c-0.2,0.1-0.4,0.2-0.5,0.3c-0.1,0.2-0.3,0.3-0.3,0.5c-0.2,0.5-0.2,0.9,0,1.4&#xA;								c0.1,0.2,0.2,0.4,0.3,0.5c0.2,0.1,0.3,0.3,0.5,0.3C129.5,103.5,129.7,103.6,129.9,103.6z M129.3,100.8h0.7&#xA;								c0.2,0,0.3,0.1,0.4,0.2c0.1,0.1,0.2,0.3,0.2,0.4c0,0.1,0,0.2-0.1,0.3c-0.1,0.1-0.2,0.2-0.3,0.2l0.5,0.8h-0.4l-0.5-0.7h-0.4&#xA;								v0.7h-0.3L129.3,100.8z M129.9,101.8c0.3,0,0.4-0.1,0.4-0.4c0-0.1,0-0.2-0.1-0.3c-0.1-0.1-0.2-0.1-0.3-0.1h-0.4v0.7&#xA;								L129.9,101.8z"/>
						</defs>
						<clipPath id="SVGID_28_">
							<use xlink:href="#SVGID_27_" style="overflow:visible;"/>
						</clipPath>
						<g class="st14">
							<defs>
								<rect id="SVGID_29_" x="3.9" y="17.9" width="142" height="95"/>
							</defs>
							<clipPath id="SVGID_30_">
								<use xlink:href="#SVGID_29_" style="overflow:visible;"/>
							</clipPath>
							<rect x="122.9" y="94.9" class="st15" width="14" height="14"/>
						</g>
					</g>
				</g>
			</g>
		</g>
	</g>
	<g>
		<defs>
			<rect id="SVGID_31_" x="16.9" y="17.9" width="107.8" height="97"/>
		</defs>
		<clipPath id="SVGID_32_">
			<use xlink:href="#SVGID_31_" style="overflow:visible;"/>
		</clipPath>
		<g class="st16">
			<defs>
				<rect id="SVGID_33_" x="-204.1" y="3.9" width="1440" height="779"/>
			</defs>
			<clipPath id="SVGID_34_">
				<use xlink:href="#SVGID_33_" style="overflow:visible;"/>
			</clipPath>
			<g class="st17">
				<g>
					<defs>
						<rect id="SVGID_35_" x="15.9" y="100.9" width="109" height="9"/>
					</defs>
					<clipPath id="SVGID_36_">
						<use xlink:href="#SVGID_35_" style="overflow:visible;"/>
					</clipPath>
					<g class="st18">
						<defs>
							<path id="SVGID_37_" d="M17.2,109.3c0,0.3-0.1,0.4-0.2,0.4s-0.1,0-0.1-0.1c0.1-0.5,0.1-1,0.1-1.5c0-0.9-0.1-1.4-0.1-1.4&#xA;								c0-0.1,0-0.2,0.1-0.2s0.1,0.1,0.1,0.2l0.1,0.7c0.6,0.8,1.6,1.2,2.6,1.2c1,0,1.6-0.4,1.6-1.1c0-0.9-0.7-1.1-2.2-1.3&#xA;								c-0.6,0-1.2-0.2-1.7-0.6c-0.4-0.4-0.6-0.9-0.6-1.4c0-1.4,1-2.3,2.5-2.3c0.7,0,1.3,0.1,1.9,0.4l0.1-0.4&#xA;								c0.1-0.3,0.1-0.5,0.2-0.5s0.1,0,0.1,0.1c-0.1,0.7-0.2,1.4-0.2,2.2v0.3c0,0.1,0,0.2-0.1,0.2s-0.1-0.1-0.1-0.2l0-0.6&#xA;								c-0.6-0.6-1.5-1-2.3-1c-1,0-1.7,0.5-1.7,1.2c0,0.3,0.1,0.5,0.3,0.7c0.5,0.4,1.2,0.4,2.1,0.5c1.4,0.2,2.1,1,2.1,2.1&#xA;								c0,1.4-1,2.3-2.7,2.3c-0.7,0-1.3-0.2-2-0.5L17.2,109.3z"/>
						</defs>
						<clipPath id="SVGID_38_">
							<use xlink:href="#SVGID_37_" style="overflow:visible;"/>
						</clipPath>
						<g class="st19">
							<defs>
								<rect id="SVGID_39_" x="16.9" y="17.9" width="108" height="97"/>
							</defs>
							<clipPath id="SVGID_40_">
								<use xlink:href="#SVGID_39_" style="overflow:visible;"/>
							</clipPath>
							<rect x="11.9" y="96.5" class="st20" width="15" height="18.3"/>
						</g>
					</g>
					<g class="st18">
						<defs>
							<path id="SVGID_41_" d="M27.5,108.3c-0.7-0.7-1-1.6-1-2.5c0-1,0.3-2,1.1-2.8c0.8-0.8,1.8-1.2,2.9-1.1c1,0,1.9,0.3,2.7,1&#xA;								c0.7,0.7,1,1.6,1,2.6c0.1,2-1.5,3.7-3.5,3.9c-0.1,0-0.3,0-0.4,0C29.2,109.4,28.2,109,27.5,108.3z M30.2,109.1&#xA;								c1.5,0,2.5-1.3,2.5-3.5c0-2.2-1-3.5-2.4-3.5s-2.5,1.3-2.5,3.5C27.8,107.8,28.8,109.1,30.2,109.1L30.2,109.1z"/>
						</defs>
						<clipPath id="SVGID_42_">
							<use xlink:href="#SVGID_41_" style="overflow:visible;"/>
						</clipPath>
						<g class="st21">
							<defs>
								<rect id="SVGID_43_" x="16.9" y="17.9" width="108" height="97"/>
							</defs>
							<clipPath id="SVGID_44_">
								<use xlink:href="#SVGID_43_" style="overflow:visible;"/>
							</clipPath>
							<rect x="21.5" y="96.9" class="st22" width="17.6" height="17.4"/>
						</g>
					</g>
					<g class="st18">
						<defs>
							<path id="SVGID_45_" d="M38.9,102.4c-0.7-0.1-1-0.1-1-0.3s0.1-0.1,0.2-0.1c0.2,0,0.6,0.1,1.2,0.1c0.6,0,1.4-0.1,2-0.1&#xA;								c1.8,0,2.7,0.6,2.7,1.8c0,1-0.9,1.9-2.4,2.1l1.4,1.9c0.4,0.6,0.7,0.9,1,0.9c0.1,0,0.3,0,0.4-0.1c0.1,0,0.1,0,0.1,0.1v0&#xA;								c-0.2,0.4-0.6,0.6-1,0.6c-0.8,0-1.1-0.5-1.7-1.4l-1.4-2c0-0.1-0.1-0.1-0.1-0.2c0-0.1,0.1-0.1,0.2-0.1H41c1.3,0,2-0.4,2-1.4&#xA;								c0-1.1-0.9-1.9-1.9-1.9c0,0,0,0,0,0c-0.3,0-0.6,0-0.8,0.1c0,0.6-0.1,1.2-0.1,2v2.5c0,0.7,0,1.4,0.1,2c0.6,0.1,1,0.1,1,0.3&#xA;								c0,0.1-0.1,0.1-0.2,0.1c-0.1,0-0.6-0.1-1.4-0.1c-0.8,0-1.3,0.1-1.4,0.1c-0.1,0-0.2,0-0.2-0.1s0.3-0.2,1-0.3&#xA;								c0.1-0.6,0.1-1.3,0.1-2v-2.5C38.9,103.6,38.9,103,38.9,102.4"/>
						</defs>
						<clipPath id="SVGID_46_">
							<use xlink:href="#SVGID_45_" style="overflow:visible;"/>
						</clipPath>
						<g class="st23">
							<defs>
								<rect id="SVGID_47_" x="16.9" y="17.9" width="108" height="97"/>
							</defs>
							<clipPath id="SVGID_48_">
								<use xlink:href="#SVGID_47_" style="overflow:visible;"/>
							</clipPath>
							<rect x="32.9" y="97" class="st24" width="16.7" height="17.3"/>
						</g>
					</g>
					<g class="st18">
						<defs>
							<path id="SVGID_49_" d="M49.5,108.3c-0.7-0.7-1-1.6-1-2.5c0-1,0.3-2,1.1-2.8c0.8-0.8,1.8-1.2,2.9-1.1c1,0,1.9,0.3,2.7,1&#xA;								c0.7,0.7,1,1.6,1,2.6c0.1,2-1.5,3.7-3.5,3.9c-0.1,0-0.3,0-0.4,0C51.2,109.4,50.3,109,49.5,108.3 M52.3,109.1&#xA;								c1.5,0,2.5-1.3,2.5-3.5c0-2.2-1-3.5-2.4-3.5c-1.5,0-2.5,1.3-2.5,3.5C49.9,107.8,50.8,109.1,52.3,109.1"/>
						</defs>
						<clipPath id="SVGID_50_">
							<use xlink:href="#SVGID_49_" style="overflow:visible;"/>
						</clipPath>
						<g class="st25">
							<defs>
								<rect id="SVGID_51_" x="16.9" y="17.9" width="108" height="97"/>
							</defs>
							<clipPath id="SVGID_52_">
								<use xlink:href="#SVGID_51_" style="overflow:visible;"/>
							</clipPath>
							<rect x="43.5" y="96.9" class="st26" width="17.6" height="17.4"/>
						</g>
					</g>
					<g class="st18">
						<defs>
							<path id="SVGID_53_" d="M60.9,102.4c-0.6-0.1-1-0.1-1-0.3s0.1-0.1,0.2-0.1c0.1,0,0.6,0.1,1.3,0.1s1.6-0.1,2.3-0.1&#xA;								c1.5,0,2.4,0.7,2.4,1.8c0,1.2-1.1,2.2-3,2.2c-0.3,0-0.7,0-1-0.1v0.9c0,0.7,0,1.4,0.1,2c0.8,0,1.2,0.1,1.2,0.3&#xA;								c0,0.2-0.1,0.1-0.2,0.1s-0.6-0.1-1.7-0.1c-0.8,0-1.3,0.1-1.4,0.1s-0.2,0-0.2-0.1c0-0.1,0.3-0.2,1-0.3c0-0.6,0-1.2,0-2v-2.5&#xA;								V102.4z M63.1,105.7c1.2,0,1.8-0.6,1.8-1.6c0.1-0.9-0.7-1.8-1.6-1.8c-0.1,0-0.1,0-0.2,0c-0.3,0-0.6,0-0.9,0.1&#xA;								c-0.1,0.6-0.1,1.2-0.1,2v1.3C62.6,105.7,62.9,105.7,63.1,105.7z"/>
						</defs>
						<clipPath id="SVGID_54_">
							<use xlink:href="#SVGID_53_" style="overflow:visible;"/>
						</clipPath>
						<g class="st27">
							<defs>
								<rect id="SVGID_55_" x="16.9" y="17.9" width="108" height="97"/>
							</defs>
							<clipPath id="SVGID_56_">
								<use xlink:href="#SVGID_55_" style="overflow:visible;"/>
							</clipPath>
							<rect x="55" y="97" class="st28" width="16.2" height="17.2"/>
						</g>
					</g>
					<g class="st18">
						<defs>
							<path id="SVGID_57_" d="M74.3,102.3c-0.1,0.6-0.1,1.3-0.1,2v2.5c0,0.7,0,1.4,0.1,2c0.6,0.1,1,0.1,1,0.3&#xA;								c0,0.1-0.1,0.1-0.2,0.1c-0.1,0-0.6-0.1-1.4-0.1c-0.8,0-1.3,0.1-1.5,0.1c-0.2,0-0.2-0.1-0.2-0.1c0-0.1,0.3-0.2,1-0.3&#xA;								c0.1-0.6,0.1-1.2,0.1-2v-2.5c0-0.7,0-1.4-0.1-2c-0.8,0-1.6,0.2-2.4,0.5l-0.1,0.6c0,0.2-0.1,0.2-0.1,0.2s-0.1-0.1-0.1-0.2&#xA;								c0-0.1,0-0.4,0-0.8c0-0.6-0.1-0.9-0.1-1.1c0-0.2,0-0.1,0.1-0.1c0.1,0,0.1,0.1,0.1,0.1l0.1,0.3c0.9,0.2,1.8,0.2,2.6,0.2H74&#xA;								c0.9,0,1.8,0,2.6-0.2l0.1-0.3c0-0.1,0.1-0.1,0.1-0.1c0,0,0.1,0,0.1,0.1c0,0.1,0,0.5,0,1.1v0.8c0,0.1,0,0.2-0.1,0.2&#xA;								s-0.1-0.1-0.1-0.2l-0.1-0.6C75.9,102.5,75.1,102.3,74.3,102.3"/>
						</defs>
						<clipPath id="SVGID_58_">
							<use xlink:href="#SVGID_57_" style="overflow:visible;"/>
						</clipPath>
						<g class="st29">
							<defs>
								<rect id="SVGID_59_" x="16.9" y="17.9" width="108" height="97"/>
							</defs>
							<clipPath id="SVGID_60_">
								<use xlink:href="#SVGID_59_" style="overflow:visible;"/>
							</clipPath>
							<rect x="65.3" y="96.4" class="st30" width="16.5" height="17.8"/>
						</g>
					</g>
					<g class="st18">
						<defs>
							<path id="SVGID_61_" d="M82,102.4c-0.6-0.1-1-0.1-1-0.3s0.1-0.1,0.2-0.1c0.5,0.1,1,0.1,1.4,0.1c0.5,0,1,0,1.4-0.1&#xA;								c0.1,0,0.2,0.1,0.2,0.1s-0.3,0.2-1,0.3c-0.1,0.6-0.1,1.2-0.1,2v2.5c0,0.7,0,1.4,0.1,2c0.7,0.1,1,0.1,1,0.3s-0.1,0.1-0.2,0.1&#xA;								c-0.1,0-0.6-0.1-1.4-0.1s-1.3,0.1-1.4,0.1s-0.2-0.1-0.2-0.1s0.3-0.2,1-0.3c0.1-0.6,0.1-1.3,0.1-2v-2.5&#xA;								C82,103.6,82,103,82,102.4"/>
						</defs>
						<clipPath id="SVGID_62_">
							<use xlink:href="#SVGID_61_" style="overflow:visible;"/>
						</clipPath>
						<g class="st31">
							<defs>
								<rect id="SVGID_63_" x="16.9" y="17.9" width="108" height="97"/>
							</defs>
							<clipPath id="SVGID_64_">
								<use xlink:href="#SVGID_63_" style="overflow:visible;"/>
							</clipPath>
							<rect x="76" y="97" class="st32" width="13.2" height="17.2"/>
						</g>
					</g>
					<g class="st18">
						<defs>
							<path id="SVGID_65_" d="M91,109.1c0,0.1-0.1,0.1-0.2,0.1c-0.1,0-0.6-0.1-1.3-0.1c-0.6,0-1,0.1-1.2,0.1s-0.2-0.1-0.2-0.1&#xA;								c0-0.1,0.3-0.2,1-0.3c0.2-0.8,0.3-1.6,0.4-2.4l0.3-3.1l-0.2-0.3c-0.1-0.3-0.3-0.5-0.6-0.6c-0.3-0.1-0.6-0.1-0.6-0.2&#xA;								c0-0.1,0.1-0.1,0.2-0.1c0.3,0,0.6,0.1,1,0.1h0.2c0.1,0,0.3,0,0.4,0l2.5,4.3l1.9-4.3c0.2,0,0.4,0.1,0.6,0h0.1&#xA;								c0.4,0,0.7-0.1,1-0.1c0.1,0,0.2,0.1,0.2,0.1c0,0.1-0.3,0.2-1,0.3l0.2,4.8c0,0.5,0.1,1.1,0.2,1.6c0.7,0.1,1,0.1,1,0.3&#xA;								s-0.1,0.1-0.2,0.1c-0.1,0-0.6-0.1-1.4-0.1c-0.8,0-1.3,0.1-1.4,0.1c-0.1,0-0.2-0.1-0.2-0.1c0-0.1,0.3-0.2,1-0.3&#xA;								c0-0.6,0-1.2-0.1-1.8l-0.2-3.8c-0.8,1.7-1.3,2.8-1.6,3.4l-0.3,0.6c-0.1,0.2-0.1,0.3-0.2,0.3c-0.1,0-0.1-0.1-0.2-0.2l-2.2-3.9&#xA;								l-0.1,2.3v1c0,0.7,0,1.3,0.1,2C90.7,108.9,91,108.9,91,109.1"/>
						</defs>
						<clipPath id="SVGID_66_">
							<use xlink:href="#SVGID_65_" style="overflow:visible;"/>
						</clipPath>
						<g class="st33">
							<defs>
								<rect id="SVGID_67_" x="16.9" y="17.9" width="108" height="97"/>
							</defs>
							<clipPath id="SVGID_68_">
								<use xlink:href="#SVGID_67_" style="overflow:visible;"/>
							</clipPath>
							<rect x="83.2" y="97" class="st34" width="18.8" height="17.2"/>
						</g>
					</g>
					<g class="st18">
						<defs>
							<path id="SVGID_69_" d="M102.1,102.4c-0.6-0.1-1-0.1-1-0.3s0.1-0.1,0.2-0.1c0.5,0.1,1,0.1,1.4,0.1c0.5,0,1,0,1.4-0.1&#xA;								c0.1,0,0.2,0.1,0.2,0.1s-0.3,0.2-1,0.3c-0.1,0.6-0.1,1.2-0.1,2v2.5c0,0.7,0,1.4,0.1,2c0.7,0.1,1,0.1,1,0.3s-0.1,0.1-0.2,0.1&#xA;								c-0.1,0-0.6-0.1-1.4-0.1c-0.8,0-1.3,0.1-1.4,0.1s-0.2-0.1-0.2-0.1s0.3-0.2,1-0.3c0.1-0.6,0.1-1.3,0.1-2v-2.5&#xA;								C102.2,103.6,102.2,103,102.1,102.4"/>
						</defs>
						<clipPath id="SVGID_70_">
							<use xlink:href="#SVGID_69_" style="overflow:visible;"/>
						</clipPath>
						<g class="st35">
							<defs>
								<rect id="SVGID_71_" x="16.9" y="17.9" width="108" height="97"/>
							</defs>
							<clipPath id="SVGID_72_">
								<use xlink:href="#SVGID_71_" style="overflow:visible;"/>
							</clipPath>
							<rect x="96.1" y="97" class="st36" width="13.2" height="17.2"/>
						</g>
					</g>
					<g class="st18">
						<defs>
							<path id="SVGID_73_" d="M109.3,109.3c0,0.3-0.1,0.4-0.2,0.4s-0.1,0-0.1-0.1c0.1-0.5,0.1-1,0.1-1.5c0-0.9-0.1-1.4-0.1-1.4&#xA;								c0-0.1,0-0.2,0.1-0.2s0.1,0.1,0.1,0.2l0.1,0.7c0.6,0.8,1.6,1.2,2.6,1.2c1,0,1.6-0.4,1.6-1.1c0-0.9-0.7-1.1-2.2-1.3&#xA;								c-0.6,0-1.2-0.2-1.7-0.6c-0.4-0.4-0.6-0.9-0.6-1.4c0-1.4,1-2.3,2.5-2.3c0.7,0,1.3,0.1,1.9,0.4l0.1-0.4&#xA;								c0.1-0.3,0.1-0.5,0.2-0.5c0.1,0,0.1,0,0.1,0.1c-0.1,0.7-0.2,1.4-0.2,2.2v0.3c0,0.1,0,0.2-0.1,0.2c-0.1,0-0.1-0.1-0.1-0.2&#xA;								l-0.1-0.6c-0.6-0.6-1.5-1-2.3-1c-1,0-1.7,0.5-1.7,1.2c0,0.3,0.1,0.5,0.3,0.7c0.5,0.4,1.2,0.4,2.1,0.5c1.4,0.2,2.1,1,2.1,2.1&#xA;								c0,1.4-1,2.3-2.7,2.3c-0.7,0-1.4-0.2-2-0.5L109.3,109.3z"/>
						</defs>
						<clipPath id="SVGID_74_">
							<use xlink:href="#SVGID_73_" style="overflow:visible;"/>
						</clipPath>
						<g class="st37">
							<defs>
								<rect id="SVGID_75_" x="16.9" y="17.9" width="108" height="97"/>
							</defs>
							<clipPath id="SVGID_76_">
								<use xlink:href="#SVGID_75_" style="overflow:visible;"/>
							</clipPath>
							<rect x="104" y="96.5" class="st38" width="15" height="18.3"/>
						</g>
					</g>
					<g class="st18">
						<defs>
							<path id="SVGID_77_" d="M122.1,102.3c-0.1,0.6-0.1,1.3-0.1,2v2.5c0,0.7,0,1.4,0.1,2c0.7,0.1,1,0.1,1,0.3&#xA;								c0,0.1-0.1,0.1-0.2,0.1c-0.1,0-0.6-0.1-1.4-0.1c-0.5,0-1,0-1.5,0.1c-0.1,0-0.2-0.1-0.2-0.1c0-0.1,0.3-0.2,1-0.3&#xA;								c0.1-0.6,0.1-1.2,0.1-2v-2.5c0-0.7,0-1.4-0.1-2c-0.8,0-1.6,0.2-2.4,0.5l-0.1,0.6c0,0.2-0.1,0.2-0.1,0.2&#xA;								c-0.1,0-0.1-0.1-0.1-0.2c0-0.1,0-0.4,0-0.8c0-0.6-0.1-0.9-0.1-1.1c0-0.2,0-0.1,0.1-0.1c0.1,0,0.1,0.1,0.1,0.1l0.1,0.3&#xA;								c0.9,0.2,1.8,0.2,2.6,0.2h0.8c0.9,0,1.8,0,2.6-0.2l0.1-0.3c0-0.1,0-0.1,0.1-0.1c0,0,0.1,0,0.1,0.1v1.1v0.8&#xA;								c0,0.1,0,0.2-0.1,0.2c-0.1,0-0.1-0.1-0.1-0.2l-0.1-0.6C123.7,102.5,122.9,102.3,122.1,102.3"/>
						</defs>
						<clipPath id="SVGID_78_">
							<use xlink:href="#SVGID_77_" style="overflow:visible;"/>
						</clipPath>
						<g class="st39">
							<defs>
								<rect id="SVGID_79_" x="16.9" y="17.9" width="108" height="97"/>
							</defs>
							<clipPath id="SVGID_80_">
								<use xlink:href="#SVGID_79_" style="overflow:visible;"/>
							</clipPath>
							<rect x="113.2" y="96.4" class="st40" width="16.5" height="17.8"/>
						</g>
					</g>
				</g>
			</g>
		</g>
	</g>
</g>
</svg>