<svg width="82" height="82" viewBox="0 0 82 82" fill="none" xmlns="http://www.w3.org/2000/svg">
<path d="M46.2905 0H35.7095C16.0693 0 0 16.0693 0 35.7095V73.7593C0 78.2917 3.70829 82 8.24065 82H46.2905C65.9307 82 82 65.9307 82 46.2905V35.7095C82 16.0693 65.9307 0 46.2905 0ZM53.2978 56.7671H12.3967L17.8026 47.403H58.7037L53.2978 56.7671ZM42.0933 45.9114L23.2963 36.127L39.9095 36.0886L58.7064 45.873L42.0933 45.9114ZM64.1947 34.5998H23.2936L28.6994 25.2356H69.6006L64.1947 34.5998Z" fill="#8E78FF"/>
<path d="M23.2936 34.5998H64.1947L69.6033 25.2329H28.7022L23.2936 34.5998Z" fill="#FFA341"/>
<path d="M12.3967 56.7673H53.2978L58.7065 47.4004H17.8053L12.3967 56.7673Z" fill="#FF890C"/>
<path d="M23.2936 36.1268L42.0933 45.9112L58.7064 45.8728L39.9067 36.0884L23.2936 36.1268Z" fill="#CCCCFF"/>
</svg>
