<svg width="134" height="157" viewBox="0 0 134 157" fill="none" xmlns="http://www.w3.org/2000/svg">
<path d="M75.6162 0H58.331C26.2498 0 0 26.2498 0 58.331V120.486C0 127.89 6.05765 133.947 13.4615 133.947H75.6162C107.697 133.947 133.947 107.697 133.947 75.6162V58.331C133.947 26.2498 107.697 0 75.6162 0ZM87.0585 92.7274H20.2502L29.0814 77.4324H95.8896L87.0585 92.7274ZM68.7579 74.9954L38.0518 59.0099L65.1894 58.9461L95.8954 74.9315L68.7579 74.9954ZM104.86 56.5207H38.0518L46.883 41.2257H113.691L104.86 56.5207Z" fill="#8E78FF"/>
<path d="M38.0519 56.5205H104.86L113.691 41.2197H46.8831L38.0519 56.5205Z" fill="#FFA341"/>
<path d="M20.2505 92.7273H87.0588L95.8957 77.4265H29.0817L20.2505 92.7273Z" fill="#FF890C"/>
<path d="M38.0519 59.0099L68.7579 74.9954L95.8955 74.9316L65.1895 58.9519L38.0519 59.0099Z" fill="#CCCCFF"/>
<path d="M11.7519 147.936C13.1445 147.936 14.3282 148.151 14.8388 149.05H19.5039C19.0803 145.482 15.7556 145.029 11.7519 145.006C7.74252 145.006 4.00001 145.789 4.00001 149.05C3.9942 151.905 8.47362 152.125 11.6591 152.288C13.452 152.375 14.8388 152.45 14.8388 152.949C14.8388 153.831 13.1387 154.063 11.7519 154.063C10.3652 154.063 9.1757 153.831 8.6651 152.949H4.00001C4.42358 156.495 7.74832 156.976 11.7519 156.988C15.7614 156.988 19.5039 156.216 19.5039 152.949C19.5097 150.083 15.0303 149.862 11.8448 149.7C10.0519 149.613 8.6651 149.549 8.6651 149.044C8.6651 148.133 10.3652 147.93 11.7519 147.93V147.936Z" fill="#8E78FF"/>
<path d="M31.3116 151.974C30.9055 153.094 29.629 153.367 28.0971 153.367C26.281 153.344 24.7318 153.002 24.755 151.139V150.86C24.7318 148.98 26.2752 148.661 28.0971 148.632C29.629 148.632 30.8939 148.893 31.3116 150.019H35.8781C35.5996 146.166 32.2168 145.012 28.1029 145.006C23.8208 145.023 20.2814 146.265 20.2988 150.582V151.417C20.2814 155.746 23.815 156.982 28.1029 156.994C32.2168 156.994 35.5996 155.839 35.8781 151.98H31.3116V151.974Z" fill="#8E78FF"/>
<path d="M41.3206 145.302L35.1934 156.727H40.2066L41.106 154.771H46.8271L47.7264 156.727H52.7397L46.6124 145.302H41.3148H41.3206ZM42.3999 151.98L43.9723 148.603L45.539 151.98H42.3999Z" fill="#8E78FF"/>
<path d="M53.0881 156.721H57.5385V153.657H65.9055V150.315H57.5385V148.922H67.0138V145.302H53.0881V156.721Z" fill="#8E78FF"/>
<path d="M68.2899 156.721H72.7461V153.657H81.1073V150.315H72.7461V148.922H82.2214V145.302H68.2899V156.721Z" fill="#8E78FF"/>
<path d="M90.8091 145C86.5096 145.006 82.9875 146.248 83.0049 150.576V151.412C82.9875 155.729 86.5096 156.976 90.8091 156.988C95.1029 156.982 98.6191 155.729 98.6017 151.412V150.576C98.6017 146.259 95.1087 145 90.8091 145ZM94.1455 151.133C94.1687 153.001 92.6252 153.344 90.8033 153.367C88.9756 153.344 87.4263 153.001 87.4554 151.133V150.855C87.4321 148.992 88.9756 148.655 90.8033 148.626C92.6194 148.65 94.1687 148.992 94.1455 150.855V151.133Z" fill="#8E78FF"/>
<path d="M104.369 145.284H99.9189V156.709H113.288V153.088H104.369V145.284Z" fill="#8E78FF"/>
<path d="M124.956 145.302H114.79V156.727H124.956C128.095 156.767 130.422 154.116 130.399 151.017C130.422 147.895 128.095 145.261 124.956 145.308V145.302ZM124.126 153.1H119.246V148.917H124.126C125.281 148.917 125.937 149.851 125.937 151.005C125.937 152.16 125.281 153.094 124.126 153.094V153.1Z" fill="#8E78FF"/>
</svg>
